<?xml version="1.0" encoding="utf-8"?>
<!-- Generator: Adobe Illustrator 24.1.1, SVG Export Plug-In . SVG Version: 6.00 Build 0)  -->
<svg version="1.1" id="Layer_1" xmlns="http://www.w3.org/2000/svg" xmlns:xlink="http://www.w3.org/1999/xlink" x="0px" y="0px"
	 viewBox="0 0 512 512" style="enable-background:new 0 0 512 512;" xml:space="preserve">
<g>
	<path d="M153.6,153.6V51.2c0-28.2,23-51.2,51.2-51.2h256C489.1,0,512,22.9,512,51.2v256c0,28.3-22.9,51.2-51.2,51.2H358.4v102.4
		c0,28.3-22.9,51.2-51.2,51.2h-256C22.9,512,0,489.1,0,460.8v-256c0-28.2,23-51.2,51.2-51.2H153.6z M204.8,153.6h102.4
		c28.3,0,51.2,22.9,51.2,51.2v102.4h102.4v-256h-256V153.6z M51.2,204.8v256h256v-256H51.2z"/>
</g>
</svg>
